<svg xmlns="http://www.w3.org/2000/svg" xmlns:xlink="http://www.w3.org/1999/xlink" version="1.1" style="" xml:space="preserve" width="512" height="512"><rect id="backgroundrect" width="100%" height="100%" x="0" y="0" fill="none" stroke="none"/>


















<g class="currentLayer" style=""><title>Layer 1</title><g id="svg_1" class="" fill="#ffffff" fill-opacity="1" stroke="#dadada" stroke-opacity="1">
	<g id="svg_2" fill="#ffffff" fill-opacity="1" stroke="#dadada" stroke-opacity="1">
		<path d="M329.956,399.834H182.044c-9.425,0-17.067,7.641-17.067,17.067s7.641,17.067,17.067,17.067h147.911    c9.425,0,17.067-7.641,17.067-17.067S339.381,399.834,329.956,399.834z" id="svg_3" fill="#ffffff" fill-opacity="1" stroke="#dadada" stroke-opacity="1"/>
	</g>
</g><g id="svg_4" class="" fill="#ffffff" fill-opacity="1" stroke="#dadada" stroke-opacity="1">
	<g id="svg_5" fill="#ffffff" fill-opacity="1" stroke="#dadada" stroke-opacity="1">
		<path d="M329.956,346.006H182.044c-9.425,0-17.067,7.641-17.067,17.067s7.641,17.067,17.067,17.067h147.911    c9.425,0,17.067-7.641,17.067-17.067S339.381,346.006,329.956,346.006z" id="svg_6" fill="#ffffff" fill-opacity="1" stroke="#dadada" stroke-opacity="1"/>
	</g>
</g><g id="svg_7" class="" fill="#ffffff" fill-opacity="1" stroke="#dadada" stroke-opacity="1">
	<g id="svg_8" fill="#ffffff" fill-opacity="1" stroke="#dadada" stroke-opacity="1">
		<path d="M472.178,133.907h-54.303V35.132c0-9.425-7.641-17.067-17.067-17.067H111.192c-9.425,0-17.067,7.641-17.067,17.067v98.775    H39.822C17.864,133.907,0,151.772,0,173.73v171.702c0,21.958,17.864,39.822,39.822,39.822h54.306v91.614    c0,9.425,7.641,17.067,17.067,17.067h289.61c9.425,0,17.067-7.641,17.067-17.067v-91.614h54.306    c21.958,0,39.822-17.864,39.822-39.822V173.73C512,151.773,494.136,133.907,472.178,133.907z M128.258,52.199h255.483v81.708    H128.258V52.199z M383.738,459.801H128.262c0-3.335,0-135.503,0-139.628h255.477C383.738,324.402,383.738,456.594,383.738,459.801    z M400.808,234.122h-43.443c-9.425,0-17.067-7.641-17.067-17.067s7.641-17.067,17.067-17.067h43.443    c9.425,0,17.067,7.641,17.067,17.067S410.234,234.122,400.808,234.122z" id="svg_9" fill="#ffffff" fill-opacity="1" stroke="#dadada" stroke-opacity="1"/>
	</g>
</g><g id="svg_10">
</g><g id="svg_11">
</g><g id="svg_12">
</g><g id="svg_13">
</g><g id="svg_14">
</g><g id="svg_15">
</g><g id="svg_16">
</g><g id="svg_17">
</g><g id="svg_18">
</g><g id="svg_19">
</g><g id="svg_20">
</g><g id="svg_21">
</g><g id="svg_22">
</g><g id="svg_23">
</g><g id="svg_24">
</g></g></svg>